<svg xmlns="http://www.w3.org/2000/svg" width="70" height="70" viewBox="0 0 70 70"><defs><clipPath id="tfg5a"><path fill="#fff" d="M22 0h26c12.15 0 22 9.85 22 22v26c0 12.15-9.85 22-22 22H22C9.85 70 0 60.15 0 48V22C0 9.85 9.85 0 22 0z"/></clipPath></defs><g><g><g><path fill="none" stroke="#29665a" stroke-miterlimit="20" stroke-width="16" d="M22 0h26c12.15 0 22 9.85 22 22v26c0 12.15-9.85 22-22 22H22C9.85 70 0 60.15 0 48V22C0 9.85 9.85 0 22 0z" clip-path="url(&quot;#tfg5a&quot;)"/></g><g><g><text dominant-baseline="text-before-edge" style="text-transform:uppercase;line-height:36px" fill="#29665a" font-family="'CeraRoundPro','CeraRoundPro-Bold'" font-size="33" font-style="none" font-weight="700" transform="translate(17 25)"><tspan style="font-kerning:normal" letter-spacing=".66">u</tspan><tspan style="font-kerning:normal" letter-spacing=".66">f</tspan></text></g></g></g></g></svg>